<svg width="39" height="39" viewBox="0 0 39 39" fill="none" xmlns="http://www.w3.org/2000/svg">
<path d="M8.125 27.625H6.5C5.63805 27.625 4.8114 27.2826 4.2019 26.6731C3.59241 26.0636 3.25 25.237 3.25 24.375V8.125C3.25 7.26305 3.59241 6.4364 4.2019 5.8269C4.8114 5.21741 5.63805 4.875 6.5 4.875H32.5C33.362 4.875 34.1886 5.21741 34.7981 5.8269C35.4076 6.4364 35.75 7.26305 35.75 8.125V24.375C35.75 25.237 35.4076 26.0636 34.7981 26.6731C34.1886 27.2826 33.362 27.625 32.5 27.625H30.875" stroke="white" stroke-width="2" stroke-linecap="round" stroke-linejoin="round"/>
<path d="M19.5 24.375L27.625 34.125H11.375L19.5 24.375Z" stroke="white" stroke-width="2" stroke-linecap="round" stroke-linejoin="round"/>
</svg>
